{"accessors": [{"bufferView": 0, "byteOffset": 0, "componentType": 5126, "type": "VEC3", "max": [10.59, 4.49, -0.49620057651307214], "min": [0.0, 0.0, -1.146678109205938], "count": 2797890}, {"bufferView": 0, "byteOffset": 12, "componentType": 5126, "type": "VEC2", "count": 2797890}], "asset": {"version": "2.0"}, "buffers": [{"uri": "test.bin", "byteLength": 55957800}], "bufferViews": [{"buffer": 0, "byteOffset": 0, "byteStride": 20, "target": 34962, "byteLength": 55957800}], "meshes": [{"primitives": [{"attributes": {"POSITION": 0, "TEXCOORD_0": 1}, "material": 0}]}], "materials": [{"pbrMetallicRoughness": {"baseColorTexture": {"index": 0, "texCoord": 0}, "metallicFactor": 1, "roughnessFactor": 1}}], "textures": [{"source": 0}], "images": [{"uri": "test.png"}], "nodes": [{"mesh": 0}], "scenes": [{"nodes": [0]}]}