{"accessors": [{"bufferView": 0, "byteOffset": 0, "componentType": 5126, "type": "VEC3", "max": [10.59, 4.32, -0.566403473806549], "min": [3.24, 0.0, -0.9693141349760753], "count": 306300}, {"bufferView": 0, "byteOffset": 12, "componentType": 5126, "type": "VEC2", "count": 306300}], "asset": {"version": "2.0"}, "buffers": [{"uri": "test.bin", "byteLength": 6126000}], "bufferViews": [{"buffer": 0, "byteOffset": 0, "byteStride": 20, "target": 34962, "byteLength": 6126000}], "meshes": [{"primitives": [{"attributes": {"POSITION": 0, "TEXCOORD_0": 1}, "material": 0}]}], "materials": [{"pbrMetallicRoughness": {"baseColorTexture": {"index": 0, "texCoord": 0}, "metallicFactor": 1, "roughnessFactor": 1}}], "textures": [{"source": 0}], "images": [{"uri": "test.png"}], "nodes": [{"mesh": 0}], "scenes": [{"nodes": [0]}]}