{"accessors": [{"bufferView": 0, "byteOffset": 0, "componentType": 5126, "type": "VEC3", "max": [10.59, 4.35, -0.44076730423750127], "min": [0.21, 0.0, -1.0341076475598983], "count": 1640526}, {"bufferView": 0, "byteOffset": 12, "componentType": 5126, "type": "VEC2", "count": 1640526}], "asset": {"version": "2.0"}, "buffers": [{"uri": "test.bin", "byteLength": 32810520}], "bufferViews": [{"buffer": 0, "byteOffset": 0, "byteStride": 20, "target": 34962, "byteLength": 32810520}], "meshes": [{"primitives": [{"attributes": {"POSITION": 0, "TEXCOORD_0": 1}, "material": 0}]}], "materials": [{"pbrMetallicRoughness": {"baseColorTexture": {"index": 0, "texCoord": 0}, "metallicFactor": 1, "roughnessFactor": 1}}], "textures": [{"source": 0}], "images": [{"uri": "texture_source.png"}], "nodes": [{"mesh": 0}], "scenes": [{"nodes": [0]}]}